inDegrees=no
num_controls=7
num_derivatives=13
num_iterations=51
num_multipliers=7
num_parameters=0
num_slacks=7
num_states=26
objective=0.431905
objective_accelerations=0.054078
objective_balance=0.007003
objective_effort=0.033084
objective_height=0.336627
objective_ligament=0.001113
solver_duration=821.582357
status=Solve_Succeeded
success=true
DataType=double
version=3
OpenSimVersion=4.5
endheader
time	/jointset/ground_pelvis/pelvis_tilt/value	/jointset/ground_pelvis/pelvis_tx/value	/jointset/ground_pelvis/pelvis_ty/value	/jointset/hip_l/hip_flexion_l/value	/jointset/hip_l/hip_adduction_l/value	/jointset/hip_l/hip_rotation_l/value	/jointset/back/lumbar_extension/value	/jointset/patellofemoral_l/patellar_flexion_l/value	/jointset/knee_l/knee_flexion_l/value	/jointset/knee_l/knee_adduction_l/value	/jointset/knee_l/knee_rotation_l/value	/jointset/ankle_l/ankle_angle_l/value	/jointset/subtalar_l/subtalar_angle_l/value	/jointset/ground_pelvis/pelvis_tilt/speed	/jointset/ground_pelvis/pelvis_tx/speed	/jointset/ground_pelvis/pelvis_ty/speed	/jointset/hip_l/hip_flexion_l/speed	/jointset/hip_l/hip_adduction_l/speed	/jointset/hip_l/hip_rotation_l/speed	/jointset/back/lumbar_extension/speed	/jointset/patellofemoral_l/patellar_flexion_l/speed	/jointset/knee_l/knee_flexion_l/speed	/jointset/knee_l/knee_adduction_l/speed	/jointset/knee_l/knee_rotation_l/speed	/jointset/ankle_l/ankle_angle_l/speed	/jointset/subtalar_l/subtalar_angle_l/speed	/forceset/tau_hip_flexion_l	/forceset/tau_hip_adduction_l	/forceset/tau_hip_rotation_l	/forceset/tau_knee_flexion_l	/forceset/tau_ankle_angle_l	/forceset/tau_subtalar_angle_l	/forceset/tau_lumbar_extension	lambda_cid13_p0	lambda_cid13_p1	lambda_cid13_p2	lambda_cid13_p3	lambda_cid13_p4	lambda_cid13_p5	lambda_cid14_p0	/jointset/ground_pelvis/pelvis_tilt/accel	/jointset/ground_pelvis/pelvis_tx/accel	/jointset/ground_pelvis/pelvis_ty/accel	/jointset/hip_l/hip_flexion_l/accel	/jointset/hip_l/hip_adduction_l/accel	/jointset/hip_l/hip_rotation_l/accel	/jointset/back/lumbar_extension/accel	/jointset/patellofemoral_l/patellar_flexion_l/accel	/jointset/knee_l/knee_flexion_l/accel	/jointset/knee_l/knee_adduction_l/accel	/jointset/knee_l/knee_rotation_l/accel	/jointset/ankle_l/ankle_angle_l/accel	/jointset/subtalar_l/subtalar_angle_l/accel	gamma_cid13_p0	gamma_cid13_p1	gamma_cid13_p2	gamma_cid13_p3	gamma_cid13_p4	gamma_cid13_p5	gamma_cid14_p0
1	-0.4582737940153842	-0.06053374626605554	0.5703261133975074	1.849949166970206	-0.2658718271554141	0.2448512530442438	-0.4363250712382363	1.48065276758903	1.480652767590455	-0.1735252149837042	0.1745214506812886	0.3084896099369566	0.05653219322415307	-0.0089073497420441	-0.001379793102727661	-0.00336917699998595	0.01692121365312653	0.0006640036408180531	0.002213621371767199	0.000413775129354511	0.005233326447881981	0.005233326447882094	-0.0001497688972277409	5.619459181247071e-05	-0.002675864374313002	2.822375813314108e-05	-0.3399102289363219	0.03975980157476253	-0.009621423962653678	-0.3879641043880978	0.08049423344446341	-0.01880809804540865	0.3024754366338735	-22.73213010618985	17.47309848202486	-9.269980150726504	13.52811446882177	-739.8293000527822	-22.49269560670379	-0.03825941869252732	1.045071790520846	0.02260928227611329	2.011295308467512	-6.272395243621232	-0.7192522764489762	-2.220484429048869	-0.02868104675825949	-5.918678196060514	-5.918678196060402	-0.1313151600429723	0.01901922528861176	-0.9917718294443645	-1.192400624118491	4.688218801254347e-09	-6.761290138965873e-09	5.966389370178091e-10	-1.28595965446684e-08	3.84714395986895e-09	-1.349592198326418e-08	-4.040242442404606e-10
1.01	-0.4583111333440112	-0.06054653254901658	0.5703927552997747	1.849805873973465	-0.2659003117919122	0.2447601436631112	-0.4363219619874654	1.480409687053954	1.480409687054245	-0.1735298585549195	0.1745220785865295	0.308413321698782	0.0564740440511446	0.001431714838465233	-0.001186387663968197	0.01668208931721272	-0.04552542471531597	-0.006355379628482033	-0.02042588128739503	0.0001978954370782272	-0.0538253437469537	-0.05382534374696668	-0.0007771847933949845	7.138346056408844e-05	-0.01260501581044029	-0.01165622986116058	-0.3396505731008717	0.03984064435734673	-0.009646023031154477	-0.3874671264497	0.08002567881486884	-0.01874063835211195	0.3021862727721989	-22.84808504333945	17.45277388274225	-9.253798518051967	13.73501437106734	-739.2444397732979	-22.471899876642	-0.03827968792774408	1.027158676373178	0.01636671785460415	1.999720341007697	-6.22263977790618	-0.6924587965746498	-2.284248602977225	-0.01956836990575788	-5.895845655295567	-5.895845655297518	-0.02819555524955524	-0.006946432590309576	-0.9969693635399328	-1.156200477823196	3.748851802377261e-09	-5.462513171205554e-09	6.376404256368283e-08	-4.240503431211482e-09	-8.534541218758755e-09	4.617563191739216e-08	-1.148048083993975e-08
1.02	-0.4582453150499237	-0.06055765266895433	0.5706594454747462	1.849039746264153	-0.2659988257499852	0.2444429261716712	-0.4363213169214566	1.479576742972108	1.479576742971263	-0.173540724435256	0.1745229153504109	0.3082370454336768	0.05629910379254534	0.01172417480126979	-0.001046560498068385	0.03664047754085991	-0.1076457288617765	-0.0133418606739497	-0.04300800069165393	-7.906183293766332e-05	-0.1127393829058078	-0.1127393829058314	-0.001394230723399073	9.796631896651226e-05	-0.02267346976028845	-0.02332999335999008	-0.3393909172653969	0.03992148713994399	-0.009670622099640305	-0.3869701485113038	0.07955712418527319	-0.01867317865879754	0.3018971089105507	-22.96949581933357	17.43265161959476	-9.236789231704105	13.98069332113931	-738.7529862733055	-22.39580001757325	-0.03829353631931576	1.035750866979858	0.01189362770419719	1.99271968975722	-6.207128399224851	-0.7126718316824673	-2.209007778068186	-0.04089656230637416	-5.889751988864206	-5.889751988863604	-0.1292411668103257	0.02129802321871973	-1.019632332188503	-1.190262600025599	1.099895399293575e-09	-3.35021791660665e-09	1.228183863011825e-07	8.09148348447553e-09	-2.111146700824387e-08	1.035291932244473e-07	-2.155684388570866e-08
1.03	-0.4580766766406426	-0.06056751289783358	0.5711252710902455	1.847653794274342	-0.2661669600057584	0.2439002459963507	-0.4363234037340198	1.478155371200701	1.478155371200558	-0.1735577031168419	0.1745240371381736	0.3079594975667058	0.05600764970668193	0.02200758084536263	-0.0009216248592042636	0.0565107701679986	-0.1695147747358444	-0.0202711818106424	-0.06551494248559392	-0.0003131849516019156	-0.1715122287978947	-0.1715122287978895	-0.001995261228545328	0.0001246567131264226	-0.03284844785980641	-0.03494158811428039	-0.3393287091481478	0.04002917353527746	-0.009766707818089585	-0.3863471503519885	0.079280474386434	-0.01853049395203526	0.3018791267578749	-23.02226346437518	17.35575071843781	-9.19691862948449	14.00052341660725	-738.3729298828143	-22.37168828579142	-0.03832855663697216	1.025248201032474	0.01337676205294579	1.982095926247042	-6.172307722967888	-0.6810181456858304	-2.269596565026156	-0.01090282816889926	-5.867633117129274	-5.867633117125465	-0.02461130389240173	-0.006948748052779136	-1.018277192481359	-1.14374454352473	-1.566505793628963e-09	-1.229621454999185e-09	1.818307600398132e-07	2.046135707161389e-08	-3.36903850488602e-08	1.608591015458534e-07	-3.162300189525379e-08
